<?xml version="1.0" standalone="no"?>
<!DOCTYPE svg PUBLIC "-//W3C//DTD SVG 20010904//EN"
 "http://www.w3.org/TR/2001/REC-SVG-20010904/DTD/svg10.dtd">
<svg version="1.0" xmlns="http://www.w3.org/2000/svg"
 width="225.000000pt" height="225.000000pt" viewBox="0 0 225.000000 225.000000"
 preserveAspectRatio="xMidYMid meet">
<metadata>
Created by potrace 1.16, written by Peter Selinger 2001-2019
</metadata>
<g transform="translate(0.000000,225.000000) scale(0.100000,-0.100000)"
fill="#000000" stroke="none">
<path d="M445 2243 c-165 -22 -311 -116 -374 -242 -68 -134 -65 -97 -69 -842
-3 -751 -3 -759 61 -894 62 -130 181 -216 346 -251 63 -13 172 -14 750 -12
624 3 680 5 731 22 179 60 268 144 328 313 l27 78 3 676 c3 751 3 759 -61 894
-43 91 -111 159 -202 202 -132 62 -141 63 -860 61 -357 0 -663 -3 -680 -5z
m597 -432 c472 -122 582 -214 583 -487 0 -92 -2 -105 -30 -160 -41 -79 -86
-106 -170 -101 -33 2 -72 9 -87 15 l-28 12 0 225 c0 244 -7 286 -51 300 -17 6
-27 2 -41 -15 -17 -21 -18 -56 -18 -561 0 -296 -3 -539 -7 -539 -5 0 -69 20
-143 43 l-135 43 -3 627 c-1 386 1 627 7 627 5 0 61 -13 123 -29z m-182 -813
l0 -83 -155 -54 c-167 -59 -192 -74 -160 -97 32 -24 113 -16 218 20 l97 33 0
-73 c0 -40 -5 -76 -10 -79 -6 -4 -59 -9 -118 -12 -120 -6 -251 12 -349 48 -59
23 -123 75 -123 102 0 26 41 67 93 94 53 26 472 181 495 182 9 1 12 -22 12
-81z m895 -3 c261 -55 324 -165 140 -246 -46 -20 -629 -229 -639 -229 -3 0 -6
37 -6 83 l0 82 241 85 c132 46 245 90 251 98 18 21 -4 33 -68 38 -53 5 -77 -1
-234 -55 -96 -34 -178 -61 -182 -61 -5 0 -8 38 -8 84 l0 84 34 12 c121 40 344
52 471 25z"/>
</g>
</svg>
